<?xml version="1.0" encoding="UTF-8" standalone="no"?>
<svg width="552px" height="346px" viewBox="0 0 552 346" version="1.1" xmlns="http://www.w3.org/2000/svg" xmlns:xlink="http://www.w3.org/1999/xlink" xmlns:sketch="http://www.bohemiancoding.com/sketch/ns">
    <!-- Generator: Sketch 3.0.1 (7597) - http://www.bohemiancoding.com/sketch -->
    <title>back</title>
    <description>Created with Sketch.</description>
    <defs />
    <g id="Page-1" stroke="none" stroke-width="1" fill="none" fill-rule="evenodd" sketch:type="MSPage">
        <g id="17" sketch:type="MSLayerGroup" transform="translate(-124.000000, -412.000000)">
            <g id="back" transform="translate(124.000000, 413.000000)">
                <path
                  d="M551.875,324.604 C551.875,335.604 542.875,344.604 531.875,344.604 L20.126,344.604 C9.126,344.604 0.126,335.604 0.126,324.604 L0.126,19.738 C0.126,8.738 9.126,-0.262 20.126,-0.262 L531.875,-0.262 C542.875,-0.262 551.875,8.738 551.875,19.738 L551.875,324.604" id="Fill-4" fill="#FFFFFF" sketch:type="MSShapeGroup" />
                <text id="Fatih-ŞEN" sketch:type="MSTextLayer" font-family=".SF NS Display" font-size="31.7274" font-weight="normal" fill="#1F4451">
                    <tspan x="249.152" y="122.80655">Fatih ŞEN</tspan>
                </text>
                <text id="Sr.-Android-Develope" sketch:type="MSTextLayer" font-family=".AppleSystemUIFont" font-size="15.1625" font-weight="normal" fill="#5FA9A3">
                    <tspan x="250.416" y="146.716603">Sr. Android Developer</tspan>
                </text>
                <text id="Email:-" sketch:type="MSTextLayer" font-family=".AppleSystemUIFont" font-size="15.1625" font-weight="normal" letter-spacing="0.0001" fill="#1F4451">
                    <tspan x="249.151448" y="193.665768">Email: </tspan>
                </text>
                <text id="fatih.sen@gmail.com" sketch:type="MSTextLayer" font-family=".AppleSystemUIFont" font-size="15.1625" font-weight="normal" fill="#5FA9A3">
                    <tspan x="295.764005" y="193.665768">fatih.sen@gmail.com</tspan>
                </text>
                <text id="Mobile:-" sketch:type="MSTextLayer" font-family=".AppleSystemUIFont" font-size="15.1625" font-weight="normal" letter-spacing="-0.0001" fill="#1F4451">
                    <tspan x="249.151448" y="216.409518">Mobile: </tspan>
                </text>
                <text id="+(90)-555-870-2982" sketch:type="MSTextLayer" font-family=".AppleSystemUIFont" font-size="15.1625" font-weight="normal" letter-spacing="-0.0002" fill="#5FA9A3">
                    <tspan x="305.440713" y="216.409518">+(90) 555 870 2982</tspan>
                </text>
                <text id="Address:-" sketch:type="MSTextLayer" font-family=".AppleSystemUIFont" font-size="15.1625" font-weight="normal" fill="#1F4451">
                    <tspan x="249.151448" y="236.625679">Address: </tspan>
                </text>
                <text id="Kadıköy,-İSTANBUL" sketch:type="MSTextLayer" font-family=".AppleSystemUIFont" font-size="15.1625" font-weight="normal" fill="#5FA9A3">
                    <tspan x="314.465433" y="236.625679">Kadıköy, İSTANBUL</tspan>
                </text>
                <g id="Fill-5" transform="translate(49.000000, 95.000000)">
                    <path
                      d="M49.886,152.053 C44.833,152.053 38.63,148.472 36.104,144.095 L1.482,84.129 C-1.045,79.752 -1.045,72.59 1.482,68.215 L36.104,8.247 C38.63,3.872 44.833,0.29 49.886,0.29 L119.129,0.29 C124.183,0.29 130.385,3.872 132.912,8.247 L167.534,68.215 C170.061,72.59 170.061,79.752 167.534,84.129 L132.912,144.095 C130.385,148.472 124.183,152.053 119.129,152.053 L49.886,152.053" fill="#1F4451" sketch:type="MSShapeGroup" />
                    <text id="Inc-2" sketch:type="MSTextLayer" font-family=".SF NS Display" font-size="26.807" font-weight="normal" sketch:alignment="middle" fill="#FFFFFF">
                        <tspan x="62.8427166" y="114.517737">Inc.</tspan>
                    </text>
                    <text id="ACME-2" sketch:type="MSTextLayer" font-family=".SF NS Display" font-size="27.9224" font-weight="normal" sketch:alignment="middle" fill="#FFFFFF">
                        <tspan x="46.3657457" y="83.6900924">ACME</tspan>
                    </text>
                    <path
                      d="M94.832,34.4092627 C89.067,34.4092627 84.378,37.9392627 84.378,42.2782627 C84.378,46.7442627 88.343,50.1122627 93.6,50.1122627 C93.714,50.1122627 93.827,50.1102627 93.942,50.1072627 C94.436,50.0942627 94.975,50.0272627 95.548,49.9562627 C96.181,49.8782627 96.836,49.7962627 97.51,49.7782627 L97.842,49.7692627 L98.166,49.8352627 L103.388,50.8842627 L102.926,49.7332627 L102.242,48.0332627 L103.472,46.6752627 C104.301,45.7612627 105.287,44.2562627 105.287,42.2782627 C105.287,37.9392627 100.597,34.4092627 94.832,34.4092627 L94.832,34.4092627 Z M94.832,31.4822627 C102.222,31.4822627 108.215,36.3162627 108.215,42.2782627 C108.215,44.6582627 107.258,46.8572627 105.64,48.6412627 L108.127,54.8232627 L97.59,52.7052627 C96.488,52.7342627 95.255,53.0012627 94.018,53.0342627 C93.879,53.0372627 93.739,53.0392627 93.6,53.0392627 C86.435,53.0392627 81.449,48.1272627 81.449,42.2782627 C81.449,36.3162627 87.44,31.4822627 94.832,31.4822627 L94.832,31.4822627 Z" id="Fill-47" fill="#FFFFFF" sketch:type="MSShapeGroup" />
                    <path
                      d="M70.982,34.4092627 C65.217,34.4092627 60.527,37.9392627 60.527,42.2782627 C60.527,44.2562627 61.513,45.7612627 62.342,46.6752627 L63.572,48.0332627 L62.888,49.7332627 L62.426,50.8842627 L67.648,49.8352627 L67.972,49.7692627 L68.304,49.7782627 C68.978,49.7962627 69.633,49.8782627 70.266,49.9562627 C70.838,50.0272627 71.378,50.0942627 71.872,50.1072627 C71.987,50.1102627 72.1,50.1122627 72.214,50.1122627 C77.472,50.1122627 81.437,46.7442627 81.437,42.2782627 C81.437,37.9392627 76.747,34.4092627 70.982,34.4092627 L70.982,34.4092627 Z M70.982,31.4822627 C78.373,31.4822627 84.365,36.3162627 84.365,42.2782627 C84.365,48.1272627 79.379,53.0392627 72.214,53.0392627 C72.075,53.0392627 71.935,53.0372627 71.795,53.0342627 C70.56,53.0012627 69.326,52.7342627 68.224,52.7052627 L57.687,54.8232627 L60.174,48.6412627 C58.556,46.8572627 57.599,44.6582627 57.599,42.2782627 C57.599,36.3162627 63.592,31.4822627 70.982,31.4822627 L70.982,31.4822627 Z" id="Fill-48" fill="#FFFFFF" sketch:type="MSShapeGroup" />
                </g>
            </g>
        </g>
    </g>
</svg>