<?xml version="1.0" encoding="UTF-8" standalone="no"?>
<svg width="552px" height="346px" viewBox="0 0 552 346" version="1.1" xmlns="http://www.w3.org/2000/svg" xmlns:xlink="http://www.w3.org/1999/xlink" xmlns:sketch="http://www.bohemiancoding.com/sketch/ns">
    <!-- Generator: Sketch 3.0.1 (7597) - http://www.bohemiancoding.com/sketch -->
    <title>front</title>
    <description>Created with Sketch.</description>
    <defs>
        <path id="path-1" d="M6,339.355 C9.625,342.98 14.625,345.23 20.125,345.23 L49.988,345.23 L531.875,345.23 C537.375,345.23 542.375,342.98 546,339.355 C549.625,335.73 551.875,330.73 551.875,325.23 L551.875,157.751 L551.875,20.364 C551.875,14.864 549.625,9.864 546,6.239 C542.375,2.614 537.375,0.364 531.875,0.364 L49.988,0.364 L20.125,0.364 C14.625,0.364 9.625,2.614 6,6.239 C2.375,9.864 0.125,14.864 0.125,20.364 L0.125,157.751 L0.125,325.23 C0.125,330.73 2.375,335.73 6,339.355" />
        <path id="path-3" d="M551.875,325.23 C551.875,336.23 542.875,345.23 531.875,345.23 L20.126,345.23 C9.126,345.23 0.126,336.23 0.126,325.23 L0.126,20.364 C0.126,9.364 9.126,0.364 20.126,0.364 L531.875,0.364 C542.875,0.364 551.875,9.364 551.875,20.364 L551.875,325.23" />
    </defs>
    <g id="Page-1" stroke="none" stroke-width="1" fill="none" fill-rule="evenodd" sketch:type="MSPage">
        <g id="17" sketch:type="MSLayerGroup" transform="translate(-124.000000, -32.000000)">
            <g id="front" transform="translate(124.000000, 32.000000)">
                <g id="Group-9">
                    <mask id="mask-2" sketch:name="Clip 8" fill="white">
                        <use xlink:href="#path-1"></use>
                    </mask>
                    <g id="Clip-8" />
                    <path
                      d="M6,339.355 C9.625,342.98 14.625,345.23 20.125,345.23 L49.988,345.23 L531.875,345.23 C537.375,345.23 542.375,342.98 546,339.355 C549.625,335.73 551.875,330.73 551.875,325.23 L551.875,157.751 L551.875,20.364 C551.875,14.864 549.625,9.864 546,6.239 C542.375,2.614 537.375,0.364 531.875,0.364 L49.988,0.364 L20.125,0.364 C14.625,0.364 9.625,2.614 6,6.239 C2.375,9.864 0.125,14.864 0.125,20.364 L0.125,157.751 L0.125,325.23 C0.125,330.73 2.375,335.73 6,339.355" id="Fill-7" sketch:type="MSShapeGroup" mask="url(#mask-2)" />
                </g>
                <g id="Group-43">
                    <mask id="mask-4" sketch:name="Clip 11" fill="white">
                        <use xlink:href="#path-3" />
                    </mask>
                    <g id="Clip-11" />
                    <path d="M568.852,420.071 L458.602,351.446 L364.095,411.805 L270.501,351.465 L174.391,411.721 L75.396,351.318 L-25.269,409.617 L-32.06,401.061 L75.577,338.725 L174.295,398.957 L270.603,338.578 L364.129,398.875 L458.509,338.597 L575.98,411.717 L568.852,420.071" id="Fill-10" fill="#86C8C3" sketch:type="MSShapeGroup" mask="url(#mask-4)" />
                    <path d="M568.852,379.868 L458.602,311.243 L364.095,371.602 L270.501,311.261 L174.391,371.518 L75.396,311.115 L-25.269,369.414 L-32.06,360.858 L75.577,298.522 L174.295,358.754 L270.603,298.375 L364.129,358.672 L458.509,298.394 L575.98,371.514 L568.852,379.868" id="Fill-12" fill="#86C8C3" sketch:type="MSShapeGroup" mask="url(#mask-4)" />
                    <path d="M568.852,339.665 L458.602,271.041 L364.095,331.398 L270.501,271.059 L174.391,331.315 L75.396,270.913 L-25.269,329.211 L-32.06,320.655 L75.577,258.319 L174.295,318.552 L270.603,258.172 L364.129,318.469 L458.509,258.191 L575.98,331.31 L568.852,339.665" id="Fill-13" fill="#86C8C3" sketch:type="MSShapeGroup" mask="url(#mask-4)" />
                    <path d="M568.852,303.483 L458.602,234.857 L364.095,295.216 L270.501,234.876 L174.391,295.132 L75.396,234.73 L-25.269,293.03 L-32.06,284.473 L75.577,222.136 L174.295,282.369 L270.603,221.99 L364.129,282.285 L458.509,222.008 L575.98,295.127 L568.852,303.483" id="Fill-14" fill="#86C8C3" sketch:type="MSShapeGroup" mask="url(#mask-4)" />
                    <path d="M568.852,263.28 L458.602,194.655 L364.095,255.013 L270.501,194.673 L174.391,254.929 L75.396,194.527 L-25.269,252.827 L-32.06,244.27 L75.577,181.933 L174.295,242.167 L270.603,181.787 L364.129,242.083 L458.509,181.805 L575.98,254.925 L568.852,263.28" id="Fill-15" fill="#86C8C3" sketch:type="MSShapeGroup" mask="url(#mask-4)" />
                    <path d="M568.852,223.077 L458.602,154.452 L364.095,214.81 L270.501,154.471 L174.391,214.727 L75.396,154.324 L-25.269,212.623 L-32.06,204.067 L75.577,141.73 L174.295,201.963 L270.603,141.583 L364.129,201.88 L458.509,141.602 L575.98,214.722 L568.852,223.077" id="Fill-16" fill="#86C8C3" sketch:type="MSShapeGroup" mask="url(#mask-4)" />
                    <path d="M568.852,182.874 L458.602,114.248 L364.095,174.606 L270.501,114.268 L174.391,174.523 L75.396,114.121 L-25.269,172.42 L-32.06,163.864 L75.577,101.526 L174.295,161.76 L270.603,101.38 L364.129,161.677 L458.509,101.399 L575.98,174.519 L568.852,182.874" id="Fill-17" fill="#86C8C3" sketch:type="MSShapeGroup" mask="url(#mask-4)" />
                    <path d="M568.852,142.671 L458.602,74.045 L364.095,134.404 L270.501,74.064 L174.391,134.32 L75.396,73.918 L-25.269,132.217 L-32.06,123.661 L75.577,61.324 L174.295,121.557 L270.603,61.177 L364.129,121.474 L458.509,61.197 L575.98,134.316 L568.852,142.671" id="Fill-18" fill="#86C8C3" sketch:type="MSShapeGroup" mask="url(#mask-4)" />
                    <path d="M568.852,102.468 L458.602,33.842 L364.095,94.2 L270.501,33.861 L174.391,94.118 L75.396,33.715 L-25.269,92.014 L-32.06,83.458 L75.577,21.121 L174.295,81.354 L270.603,20.974 L364.129,81.271 L458.509,20.994 L575.98,94.113 L568.852,102.468" id="Fill-19" fill="#86C8C3" sketch:type="MSShapeGroup" mask="url(#mask-4)" />
                    <path d="M568.852,62.265 L458.602,-6.361 L364.095,53.998 L270.501,-6.341 L174.391,53.915 L75.396,-6.488 L-25.269,51.812 L-32.06,43.254 L75.577,-19.082 L174.295,41.151 L270.603,-19.229 L364.129,41.068 L458.509,-19.21 L575.98,53.91 L568.852,62.265" id="Fill-20" fill="#86C8C3" sketch:type="MSShapeGroup" mask="url(#mask-4)" />
                    <path d="M568.852,27.805 L458.602,-40.82 L364.095,19.538 L270.501,-40.802 L174.391,19.455 L75.396,-40.947 L-25.269,17.352 L-32.06,8.795 L75.577,-53.542 L174.295,6.692 L270.603,-53.688 L364.129,6.608 L458.509,-53.669 L575.98,19.45 L568.852,27.805" id="Fill-21" fill="#86C8C3" sketch:type="MSShapeGroup" mask="url(#mask-4)" />
                    <path d="M568.852,391.355 L458.602,322.73 L364.095,383.089 L270.501,322.749 L174.391,383.005 L75.396,322.603 L-25.269,380.901 L-32.06,372.346 L75.577,310.008 L174.295,370.242 L270.603,309.861 L364.129,370.156 L458.509,309.88 L575.98,383 L568.852,391.355" id="Fill-22" fill="#5FA9A3" sketch:type="MSShapeGroup" mask="url(#mask-4)" />
                    <path d="M568.852,351.152 L458.602,282.527 L364.095,342.885 L270.501,282.544 L174.391,342.802 L75.396,282.399 L-25.269,340.699 L-32.06,332.143 L75.577,269.805 L174.295,330.038 L270.603,269.659 L364.129,329.954 L458.509,269.677 L575.98,342.797 L568.852,351.152" id="Fill-23" fill="#5FA9A3" sketch:type="MSShapeGroup" mask="url(#mask-4)" />
                    <path d="M568.852,310.949 L458.602,242.324 L364.095,302.682 L270.501,242.342 L174.391,302.599 L75.396,242.196 L-25.269,300.496 L-32.06,291.938 L75.577,229.603 L174.295,289.835 L270.603,229.456 L364.129,289.751 L458.509,229.475 L575.98,302.595 L568.852,310.949" id="Fill-24" fill="#5FA9A3" sketch:type="MSShapeGroup" mask="url(#mask-4)" />
                    <path d="M568.852,274.766 L458.602,206.141 L364.095,266.499 L270.501,206.16 L174.391,266.416 L75.396,206.014 L-25.269,264.313 L-32.06,255.756 L75.577,193.419 L174.295,253.652 L270.603,193.273 L364.129,253.569 L458.509,193.292 L575.98,266.412 L568.852,274.766" id="Fill-25" fill="#5FA9A3" sketch:type="MSShapeGroup" mask="url(#mask-4)" />
                    <path d="M568.852,234.563 L458.602,165.938 L364.095,226.296 L270.501,165.957 L174.391,226.213 L75.396,165.81 L-25.269,224.11 L-32.06,215.553 L75.577,153.217 L174.295,213.45 L270.603,153.07 L364.129,213.366 L458.509,153.088 L575.98,226.208 L568.852,234.563" id="Fill-26" fill="#5FA9A3" sketch:type="MSShapeGroup" mask="url(#mask-4)" />
                    <path d="M568.852,194.36 L458.602,125.734 L364.095,186.093 L270.501,125.753 L174.391,186.01 L75.396,125.608 L-25.269,183.906 L-32.06,175.35 L75.577,113.014 L174.295,173.247 L270.603,112.867 L364.129,173.163 L458.509,112.886 L575.98,186.006 L568.852,194.36" id="Fill-27" fill="#5FA9A3" sketch:type="MSShapeGroup" mask="url(#mask-4)" />
                    <path d="M568.852,154.157 L458.602,85.532 L364.095,145.89 L270.501,85.551 L174.391,145.807 L75.396,85.405 L-25.269,143.704 L-32.06,135.147 L75.577,72.81 L174.295,133.043 L270.603,72.664 L364.129,132.96 L458.509,72.683 L575.98,145.802 L568.852,154.157" id="Fill-28" fill="#5FA9A3" sketch:type="MSShapeGroup" mask="url(#mask-4)" />
                    <path d="M568.852,113.955 L458.602,45.329 L364.095,105.688 L270.501,45.348 L174.391,105.604 L75.396,45.202 L-25.269,103.501 L-32.06,94.944 L75.577,32.607 L174.295,92.841 L270.603,32.461 L364.129,92.758 L458.509,32.48 L575.98,105.6 L568.852,113.955" id="Fill-29" fill="#5FA9A3" sketch:type="MSShapeGroup" mask="url(#mask-4)" />
                    <path d="M568.852,73.751 L458.602,5.126 L364.095,65.484 L270.501,5.145 L174.391,65.401 L75.396,4.998 L-25.269,63.298 L-32.06,54.741 L75.577,-7.596 L174.295,52.638 L270.603,-7.742 L364.129,52.555 L458.509,-7.723 L575.98,65.396 L568.852,73.751" id="Fill-30" fill="#5FA9A3" sketch:type="MSShapeGroup" mask="url(#mask-4)" />
                    <path d="M568.852,33.548 L458.602,-35.077 L364.095,25.281 L270.501,-35.058 L174.391,25.198 L75.396,-35.204 L-25.269,23.095 L-32.06,14.538 L75.577,-47.799 L174.295,12.435 L270.603,-47.945 L364.129,12.352 L458.509,-47.926 L575.98,25.193 L568.852,33.548" id="Fill-31" fill="#5FA9A3" sketch:type="MSShapeGroup" mask="url(#mask-4)" />
                    <path d="M568.852,408.585 L458.602,339.96 L364.095,400.318 L270.501,339.979 L174.391,400.234 L75.396,339.832 L-25.269,398.131 L-32.06,389.574 L75.577,327.238 L174.295,387.471 L270.603,327.093 L364.129,387.387 L458.509,327.11 L575.98,400.23 L568.852,408.585" id="Fill-32" fill="#86C8C3" sketch:type="MSShapeGroup" mask="url(#mask-4)" />
                    <path d="M568.852,368.382 L458.602,299.757 L364.095,360.115 L270.501,299.776 L174.391,360.032 L75.396,299.629 L-25.269,357.928 L-32.06,349.372 L75.577,287.034 L174.295,347.269 L270.603,286.889 L364.129,347.185 L458.509,286.907 L575.98,360.027 L568.852,368.382" id="Fill-33" fill="#86C8C3" sketch:type="MSShapeGroup" mask="url(#mask-4)" />
                    <path d="M568.852,328.179 L458.602,259.553 L364.095,319.912 L270.501,259.572 L174.391,319.828 L75.396,259.425 L-25.269,317.726 L-32.06,309.169 L75.577,246.832 L174.295,307.065 L270.603,246.686 L364.129,306.981 L458.509,246.704 L575.98,319.824 L568.852,328.179" id="Fill-34" fill="#86C8C3" sketch:type="MSShapeGroup" mask="url(#mask-4)" />
                    <path d="M568.852,291.995 L458.602,223.371 L364.095,283.729 L270.501,223.39 L174.391,283.646 L75.396,223.243 L-25.269,281.542 L-32.06,272.986 L75.577,210.649 L174.295,270.882 L270.603,210.503 L364.129,270.799 L458.509,210.522 L575.98,283.642 L568.852,291.995" id="Fill-35" fill="#86C8C3" sketch:type="MSShapeGroup" mask="url(#mask-4)" />
                    <path d="M568.852,251.793 L458.602,183.167 L364.095,243.526 L270.501,183.187 L174.391,243.442 L75.396,183.041 L-25.269,241.339 L-32.06,232.783 L75.577,170.446 L174.295,230.68 L270.603,170.3 L364.129,230.596 L458.509,170.319 L575.98,243.438 L568.852,251.793" id="Fill-36" fill="#86C8C3" sketch:type="MSShapeGroup" mask="url(#mask-4)" />
                    <path d="M568.852,211.59 L458.602,142.965 L364.095,203.324 L270.501,142.984 L174.391,203.24 L75.396,142.837 L-25.269,201.137 L-32.06,192.58 L75.577,130.243 L174.295,190.477 L270.603,130.097 L364.129,190.393 L458.509,130.116 L575.98,203.235 L568.852,211.59" id="Fill-37" fill="#86C8C3" sketch:type="MSShapeGroup" mask="url(#mask-4)" />
                    <path d="M568.852,171.387 L458.602,102.762 L364.095,163.121 L270.501,102.781 L174.391,163.037 L75.396,102.635 L-25.269,160.934 L-32.06,152.377 L75.577,90.04 L174.295,150.274 L270.603,89.894 L364.129,150.19 L458.509,89.913 L575.98,163.031 L568.852,171.387" id="Fill-38" fill="#86C8C3" sketch:type="MSShapeGroup" mask="url(#mask-4)" />
                    <path d="M568.852,131.184 L458.602,62.559 L364.095,122.917 L270.501,62.578 L174.391,122.833 L75.396,62.431 L-25.269,120.731 L-32.06,112.174 L75.577,49.837 L174.295,110.071 L270.603,49.691 L364.129,109.988 L458.509,49.709 L575.98,122.83 L568.852,131.184" id="Fill-39" fill="#86C8C3" sketch:type="MSShapeGroup" mask="url(#mask-4)" />
                    <path d="M568.852,90.981 L458.602,22.355 L364.095,82.714 L270.501,22.375 L174.391,82.631 L75.396,22.228 L-25.269,80.528 L-32.06,71.971 L75.577,9.634 L174.295,69.868 L270.603,9.488 L364.129,69.785 L458.509,9.507 L575.98,82.626 L568.852,90.981" id="Fill-40" fill="#86C8C3" sketch:type="MSShapeGroup" mask="url(#mask-4)"/>
                    <path d="M568.852,50.778 L458.602,-17.847 L364.095,42.511 L270.501,-17.828 L174.391,42.428 L75.396,-17.975 L-25.269,40.325 L-32.06,31.768 L75.577,-30.568 L174.295,29.665 L270.603,-30.716 L364.129,29.581 L458.509,-30.696 L575.98,42.423 L568.852,50.778" id="Fill-41" fill="#86C8C3" sketch:type="MSShapeGroup" mask="url(#mask-4)" />
                    <path d="M568.852,16.319 L458.602,-52.307 L364.095,8.052 L270.501,-52.288 L174.391,7.968 L75.396,-52.434 L-25.269,5.865 L-32.06,-2.691 L75.577,-65.028 L174.295,-4.795 L270.603,-65.175 L364.129,-4.878 L458.509,-65.156 L575.98,7.963 L568.852,16.319" id="Fill-42" fill="#86C8C3" sketch:type="MSShapeGroup" mask="url(#mask-4)" />
                </g>
                <g id="Group" transform="translate(184.000000, 91.000000)">
                    <path
                      d="M54.321,164.671 C48.821,164.671 42.071,160.773 39.321,156.011 L1.642,90.748 C-1.108,85.985 -1.108,78.19 1.642,73.428 L39.321,8.165 C42.071,3.402 48.821,-0.495 54.321,-0.495 L129.679,-0.495 C135.179,-0.495 141.929,3.402 144.679,8.165 L182.358,73.428 C185.108,78.19 185.108,85.985 182.358,90.748 L144.679,156.011 C141.929,160.773 135.179,164.671 129.679,164.671 L54.321,164.671" id="Fill-44" fill="#1F4451" sketch:type="MSShapeGroup" />
                    <text id="ACME" sketch:type="MSTextLayer" font-family=".SF NS Display" font-size="27.9224" font-weight="normal" sketch:alignment="middle" fill="#FFFFFF">
                        <tspan x="55.4587457" y="85.2908297">ACME</tspan>
                    </text>
                    <text id="Inc" sketch:type="MSTextLayer" font-family=".SF NS Display" font-size="26.807" font-weight="normal" sketch:alignment="middle" fill="#FFFFFF">
                        <tspan x="71.9357166" y="116.118475">Inc.</tspan>
                    </text>
                    <path
                      d="M103.925,36.01 C98.16,36.01 93.471,39.54 93.471,43.879 C93.471,48.345 97.436,51.713 102.693,51.713 C102.807,51.713 102.92,51.711 103.035,51.708 C103.529,51.695 104.068,51.628 104.641,51.557 C105.274,51.479 105.929,51.397 106.603,51.379 L106.935,51.37 L107.259,51.436 L112.481,52.485 L112.019,51.334 L111.335,49.634 L112.565,48.276 C113.394,47.362 114.38,45.857 114.38,43.879 C114.38,39.54 109.69,36.01 103.925,36.01 L103.925,36.01 Z M103.925,33.083 C111.315,33.083 117.308,37.917 117.308,43.879 C117.308,46.259 116.351,48.458 114.733,50.242 L117.22,56.424 L106.683,54.306 C105.581,54.335 104.348,54.602 103.111,54.635 C102.972,54.638 102.832,54.64 102.693,54.64 C95.528,54.64 90.542,49.728 90.542,43.879 C90.542,37.917 96.533,33.083 103.925,33.083 L103.925,33.083 Z" id="Fill-45" fill="#FFFFFF" sketch:type="MSShapeGroup" />
                    <path
                      d="M80.075,36.01 C74.31,36.01 69.62,39.54 69.62,43.879 C69.62,45.857 70.606,47.362 71.435,48.276 L72.665,49.634 L71.981,51.334 L71.519,52.485 L76.741,51.436 L77.065,51.37 L77.397,51.379 C78.071,51.397 78.726,51.479 79.359,51.557 C79.931,51.628 80.471,51.695 80.965,51.708 C81.08,51.711 81.193,51.713 81.307,51.713 C86.565,51.713 90.53,48.345 90.53,43.879 C90.53,39.54 85.84,36.01 80.075,36.01 L80.075,36.01 Z M80.075,33.083 C87.466,33.083 93.458,37.917 93.458,43.879 C93.458,49.728 88.472,54.64 81.307,54.64 C81.168,54.64 81.028,54.638 80.888,54.635 C79.653,54.602 78.419,54.335 77.317,54.306 L66.78,56.424 L69.267,50.242 C67.649,48.458 66.692,46.259 66.692,43.879 C66.692,37.917 72.685,33.083 80.075,33.083 L80.075,33.083 Z" id="Fill-46" fill="#FFFFFF" sketch:type="MSShapeGroup" />
                </g>
            </g>
        </g>
    </g>
</svg>